<svg width="54.392578125" height="111.81640625" viewBox="0 0 54.392578125 113.81640625"
    xmlns="http://www.w3.org/2000/svg" data-copyright="https://github.com/oubenruing/svg-text-animate"
    style="vertical-align: text-top; ">
    <g id="svgGroup" stroke-linecap="round" stroke="#000" fill="none" style="fill:none; 
            stroke:#D93434;
            stroke-width:2px;">
        <path
            d="M31.59 22.51L31.59 22.51Q34.23 22.51 36.23 23.00Q38.23 23.49 39.77 24.10Q41.31 24.71 42.46 25.20Q43.60 25.68 44.48 25.68L44.48 25.68Q45.12 25.68 45.56 25.15Q46.00 24.61 46.34 23.83Q46.68 23.05 46.92 22.12Q47.17 21.19 47.41 20.41L47.41 20.41Q47.71 19.29 48.07 18.48Q48.44 17.68 49.12 17.68L49.12 17.68Q49.90 17.68 49.90 19.09L49.90 19.09Q49.90 19.87 49.73 20.85Q49.56 21.83 49.29 23.17Q49.02 24.51 48.71 26.29Q48.39 28.08 48.10 30.42L48.10 30.42Q47.71 33.30 47.58 35.52Q47.46 37.74 47.36 39.23Q47.27 40.72 47.09 41.50Q46.92 42.29 46.48 42.29L46.48 42.29Q46.14 42.29 45.95 41.92Q45.75 41.55 45.61 41.02Q45.46 40.48 45.36 39.94Q45.26 39.40 45.21 39.01L45.21 39.01Q44.97 37.74 44.60 36.21Q44.24 34.67 43.60 33.08Q42.97 31.49 42.04 29.98Q41.11 28.47 39.72 27.29Q38.33 26.12 36.43 25.42Q34.52 24.71 31.98 24.71L31.98 24.71Q27.39 24.71 24.85 27.44Q22.31 30.18 22.31 35.50L22.31 35.50Q22.31 38.18 23.61 40.94Q24.90 43.70 27.03 46.63Q29.15 49.56 31.84 52.64Q34.52 55.71 37.35 58.98Q40.19 62.26 42.87 65.72Q45.56 69.19 47.68 72.90Q49.80 76.61 51.10 80.59Q52.39 84.57 52.39 88.82L52.39 88.82Q52.39 94.68 50.49 99.00Q48.58 103.32 45.36 106.18Q42.14 109.03 37.89 110.42Q33.64 111.82 29.00 111.82L29.00 111.82Q25.39 111.82 22.68 110.96Q19.97 110.11 17.80 109.11Q15.63 108.11 13.84 107.25Q12.06 106.40 10.30 106.40L10.30 106.40Q8.94 106.40 7.79 107.23Q6.64 108.06 5.69 109.06Q4.74 110.06 4.03 110.89Q3.32 111.72 2.88 111.72L2.88 111.72Q2.49 111.72 2.39 111.45Q2.29 111.18 2.29 110.79L2.29 110.79Q2.29 110.40 2.44 109.50Q2.59 108.59 2.76 107.32Q2.93 106.05 3.08 104.44Q3.22 102.83 3.22 100.98L3.22 100.98Q3.22 97.66 2.59 94.17Q1.95 90.67 1.17 87.60Q0.39 84.52-0.24 82.18Q-0.88 79.83-0.88 78.81L-0.88 78.81Q-0.88 78.37-0.71 77.98Q-0.54 77.59 0 77.59L0 77.59Q0.73 77.59 1.37 78.64Q2.00 79.69 2.69 81.40L2.69 81.40Q3.13 82.57 3.83 84.28Q4.54 85.99 5.42 87.96Q6.30 89.94 7.35 92.09Q8.40 94.24 9.62 96.29L9.62 96.29Q11.72 99.90 14.01 102.29Q16.31 104.69 18.73 106.13Q21.14 107.57 23.63 108.18Q26.12 108.79 28.61 108.79L28.61 108.79Q31.59 108.79 33.76 107.67Q35.94 106.54 37.35 104.74Q38.77 102.93 39.43 100.68Q40.09 98.44 40.09 96.19L40.09 96.19Q40.09 91.75 38.89 87.87Q37.70 83.98 35.77 80.44Q33.84 76.90 31.35 73.63Q28.86 70.36 26.25 67.24Q23.63 64.11 21.14 61.04Q18.65 57.96 16.72 54.76Q14.79 51.56 13.60 48.17Q12.40 44.78 12.40 41.02L12.40 41.02Q12.40 37.35 13.33 34.57Q14.26 31.79 15.80 29.74Q17.33 27.69 19.31 26.29Q21.29 24.90 23.41 24.07Q25.54 23.24 27.66 22.88Q29.79 22.51 31.59 22.51Z"
            style="stroke-dasharray: 412, 414; stroke-dashoffset: 413;">
            <animate attributeName="stroke-dashoffset" to="0" dur="1500ms" calcMode="linear" repeatCount="1"
                fill="freeze" begin="0ms"></animate>
        </path>
    </g>
</svg>