<svg width="76.4140625" height="97.998046875" viewBox="0 0 76.4140625 99.998046875" xmlns="http://www.w3.org/2000/svg"
    data-copyright="https://github.com/oubenruing/svg-text-animate" style="vertical-align: text-top; ">
    <g id="svgGroup" stroke-linecap="round" stroke="#000" fill="none" style="fill:none; 
            stroke:#D93434;
            stroke-width:2px;">
        <path
            d="M20.12 45.70L20.12 45.70Q20.41 45.70 20.65 46.14Q20.90 46.58 21.19 48.39L21.19 48.39Q21.88 52.49 22.36 55.81Q22.85 59.13 23.39 61.91L23.39 61.91Q24.56 68.31 25.71 73.34Q26.86 78.37 28.42 81.84Q29.98 85.30 32.25 87.11Q34.52 88.92 37.99 88.92L37.99 88.92Q40.48 88.92 42.33 87.77Q44.19 86.62 45.48 84.69Q46.78 82.76 47.61 80.27Q48.44 77.78 48.90 75.12Q49.37 72.46 49.54 69.80Q49.71 67.14 49.71 64.89L49.71 64.89Q49.71 62.79 49.61 60.74Q49.51 58.69 48.93 57.06Q48.34 55.42 47.09 54.42Q45.85 53.42 43.51 53.42L43.51 53.42Q42.09 53.42 40.63 53.66Q39.16 53.91 37.79 53.91L37.79 53.91Q37.11 53.91 36.65 53.61Q36.18 53.32 36.18 52.69L36.18 52.69Q36.18 51.95 36.72 51.68Q37.26 51.42 38.09 51.32L38.09 51.32Q38.96 51.27 40.14 51.17Q41.31 51.07 42.70 50.85Q44.09 50.63 45.65 50.27Q47.22 49.90 48.88 49.22L48.88 49.22Q50.24 48.63 51.49 47.85Q52.73 47.07 53.74 46.36Q54.74 45.65 55.49 45.17Q56.25 44.68 56.69 44.68L56.69 44.68Q57.23 44.68 57.40 45.53Q57.57 46.39 57.71 47.90L57.71 47.90Q57.91 49.95 58.13 53.27Q58.35 56.59 58.67 60.60Q58.98 64.60 59.40 68.97Q59.81 73.34 60.40 77.59L60.40 77.59Q60.69 79.83 61.23 81.23Q61.77 82.62 62.50 83.40Q63.23 84.18 64.14 84.45Q65.04 84.72 66.11 84.72L66.11 84.72Q68.31 84.72 70.14 84.35Q71.97 83.98 72.90 83.98L72.90 83.98Q73.83 83.98 74.12 84.33Q74.41 84.67 74.41 85.11L74.41 85.11Q74.41 85.55 74.12 85.96Q73.83 86.38 72.90 86.62L72.90 86.62Q71.53 86.91 69.14 87.18Q66.75 87.45 63.48 87.89L63.48 87.89Q60.84 88.28 58.96 88.75Q57.08 89.21 56.01 89.21L56.01 89.21Q54.93 89.21 54.37 88.72Q53.81 88.23 53.52 86.82L53.52 86.82Q53.22 85.40 52.93 83.72Q52.64 82.03 52.37 80.32Q52.10 78.61 51.83 76.90Q51.56 75.20 51.32 73.68L51.32 73.68Q50.93 76.32 50.34 79.15Q49.76 81.98 48.80 84.69Q47.85 87.40 46.51 89.82Q45.17 92.24 43.26 94.04Q41.36 95.85 38.84 96.92Q36.33 98.00 33.11 98.00L33.11 98.00Q27.83 98.00 24.10 95.19Q20.36 92.38 18.41 87.21L18.41 87.21Q17.29 84.38 16.60 81.20Q15.92 78.03 15.48 75Q15.04 71.97 14.77 69.36Q14.50 66.75 14.21 64.99L14.21 64.99Q13.92 63.18 13.45 61.99Q12.99 60.79 12.40 60.11Q11.82 59.42 11.11 59.16Q10.40 58.89 9.62 58.89L9.62 58.89Q8.84 58.89 7.93 59.11Q7.03 59.33 6.13 59.59Q5.22 59.86 4.39 60.08Q3.56 60.30 2.88 60.30L2.88 60.30Q2.44 60.30 1.98 60.03Q1.51 59.77 1.51 58.98L1.51 58.98Q1.51 58.11 2.29 57.79Q3.08 57.47 4.30 57.08L4.30 57.08Q5.81 56.64 7.89 55.76Q9.96 54.88 12.30 53.32L12.30 53.32Q14.26 52.00 15.55 50.66Q16.85 49.32 17.70 48.22Q18.55 47.12 19.12 46.41Q19.68 45.70 20.12 45.70Z"
            style="stroke-dasharray: 331, 333; stroke-dashoffset: 332;">
            <animate attributeName="stroke-dashoffset" to="0" dur="1500ms" calcMode="linear" repeatCount="1"
                fill="freeze" begin="200ms"></animate>
        </path>
    </g>
</svg>