<svg width="60.3984375" height="102.294921875" viewBox="0 0 60.3984375 104.294921875" xmlns="http://www.w3.org/2000/svg"
    data-copyright="https://github.com/oubenruing/svg-text-animate" style="vertical-align: text-top; ">
    <g id="svgGroup" stroke-linecap="round" stroke="#000" fill="none" style="fill:none; 
            stroke:#D93434;
            stroke-width:2px;">
        <path
            d="M16.80 37.11L16.80 37.11Q17.19 37.11 17.58 38.35Q17.97 39.60 18.36 41.60Q18.75 43.60 19.14 46.22Q19.53 48.83 19.92 51.51L19.92 51.51L21.68 63.82Q21.92 62.21 22.53 60.11Q23.14 58.01 24.17 55.76Q25.20 53.52 26.66 51.37Q28.13 49.22 30.05 47.51Q31.98 45.80 34.40 44.75Q36.82 43.70 39.79 43.70L39.79 43.70Q43.46 43.70 46.14 45.09Q48.83 46.48 50.59 48.95Q52.34 51.42 53.17 54.83Q54.00 58.25 54.00 62.30L54.00 62.30Q54.00 65.97 53.59 69.65Q53.17 73.34 52.71 76.90Q52.25 80.47 51.83 83.79Q51.42 87.11 51.42 89.99L51.42 89.99Q51.42 91.70 51.71 92.97Q52.00 94.24 52.59 95.31L52.59 95.31Q53.27 96.34 54.27 97.09Q55.27 97.85 56.18 98.51Q57.08 99.17 57.74 99.83Q58.40 100.49 58.40 101.22L58.40 101.22Q58.40 101.66 58.15 101.98Q57.91 102.29 57.32 102.29L57.32 102.29Q56.45 102.29 55.40 101.64Q54.35 100.98 52.81 99.98Q51.27 98.97 49.12 97.83Q46.97 96.68 43.90 95.70L43.90 95.70Q41.60 94.92 39.28 94.48Q36.96 94.04 33.89 93.90L33.89 93.90Q32.18 93.75 32.18 92.92L32.18 92.92Q32.18 91.99 33.30 91.99L33.30 91.99Q33.98 91.99 35.21 91.99Q36.43 91.99 37.70 91.89L37.70 91.89Q39.65 91.75 40.92 90.70Q42.19 89.65 42.82 86.82L42.82 86.82Q43.02 85.69 43.21 83.96Q43.41 82.23 43.55 80.25Q43.70 78.27 43.80 76.22Q43.90 74.17 43.90 72.31L43.90 72.31Q43.90 70.65 43.85 68.48Q43.80 66.31 43.53 63.96Q43.26 61.62 42.70 59.38Q42.14 57.13 41.06 55.37Q39.99 53.61 38.33 52.51Q36.67 51.42 34.28 51.42L34.28 51.42Q32.23 51.42 30.54 52.44Q28.86 53.47 27.54 55.30Q26.22 57.13 25.29 59.62Q24.37 62.11 23.88 65.09L23.88 65.09Q23.34 68.12 23.17 71.31Q23.00 74.51 23.00 77.69L23.00 77.69Q23.00 80.37 23.19 82.84Q23.39 85.30 23.73 87.38Q24.07 89.45 24.56 91.06Q25.05 92.68 25.68 93.60L25.68 93.60Q26.61 94.87 27.69 95.51Q28.76 96.14 29.49 96.39L29.49 96.39Q30.47 96.68 30.88 96.90Q31.30 97.12 31.30 97.51L31.30 97.51Q31.30 97.80 30.83 98.05Q30.37 98.29 29.30 98.29L29.30 98.29Q28.27 98.29 27.05 98.12Q25.83 97.95 24.51 97.75Q23.19 97.56 21.78 97.39Q20.36 97.22 18.99 97.22L18.99 97.22Q17.63 97.22 16.21 97.31Q14.79 97.41 13.50 97.51Q12.21 97.61 11.13 97.71Q10.06 97.80 9.42 97.80L9.42 97.80Q7.52 97.80 7.52 96.58L7.52 96.58Q7.52 96.14 7.84 95.83Q8.15 95.51 8.98 95.41L8.98 95.41Q9.67 95.36 10.21 95.31Q10.74 95.26 11.30 95.24Q11.87 95.21 12.48 95.17Q13.09 95.12 13.92 95.02L13.92 95.02Q15.48 94.78 16.04 93.87Q16.60 92.97 16.60 91.41L16.60 91.41Q16.60 88.72 16.14 84.86Q15.67 81.01 14.89 76.37Q14.11 71.73 13.01 66.53Q11.91 61.33 10.69 55.91L10.69 55.91Q10.11 53.13 9.35 51.76Q8.59 50.39 7.18 50.39L7.18 50.39Q6.45 50.39 5.66 50.66Q4.88 50.93 4.13 51.25Q3.37 51.56 2.69 51.83Q2.00 52.10 1.42 52.10L1.42 52.10Q0.49 52.10 0.49 51.32L0.49 51.32Q0.49 50.68 1.00 50.42Q1.51 50.15 2.10 49.90L2.10 49.90Q3.47 49.37 5.05 48.54Q6.64 47.71 8.50 46.29L8.50 46.29Q10.30 44.87 11.72 43.26Q13.13 41.65 14.16 40.28Q15.19 38.92 15.82 38.01Q16.46 37.11 16.80 37.11Z"
            style="stroke-dasharray: 372, 374; stroke-dashoffset: 373;">
            <animate attributeName="stroke-dashoffset" to="0" dur="1500ms" calcMode="linear" repeatCount="1"
                fill="freeze" begin="400ms"></animate>
        </path>
    </g>
</svg>