<svg width="114.01171875" height="105.17578125" viewBox="0 0 114.01171875 107.17578125"
    xmlns="http://www.w3.org/2000/svg" data-copyright="https://github.com/oubenruing/svg-text-animate"
    style="vertical-align: text-top; ">
    <g id="svgGroup" stroke-linecap="round" stroke="#000" fill="none" style="fill:none; 
            stroke:#D93434;
            stroke-width:2px;">
        <path
            d="M27.78 50.49L27.78 50.49Q27.25 47.27 25.78 45.39Q24.32 43.51 22.80 42.68L22.80 42.68Q21.58 41.99 20.39 41.65Q19.19 41.31 18.31 41.02L18.31 41.02Q17.38 40.67 16.94 40.28Q16.50 39.89 16.50 39.21L16.50 39.21Q16.50 37.79 18.41 37.79L18.41 37.79Q19.29 37.79 20.12 37.99Q20.95 38.18 22.12 38.43Q23.29 38.67 24.90 38.99Q26.51 39.31 28.91 39.50L28.91 39.50Q31.10 39.70 32.62 39.72Q34.13 39.75 35.18 39.77Q36.23 39.79 36.96 39.87Q37.70 39.94 38.28 40.19L38.28 40.19Q39.16 40.58 40.60 42.09Q42.04 43.60 43.82 45.80Q45.61 48.00 47.61 50.68Q49.61 53.37 51.59 56.13Q53.56 58.89 55.44 61.47Q57.32 64.06 58.86 66.06Q60.40 68.07 61.50 69.29Q62.60 70.51 62.99 70.51L62.99 70.51Q63.82 70.51 66.24 65.99Q68.65 61.47 73.10 52.49L73.10 52.49Q74.32 50 75.61 47.19Q76.90 44.38 78.15 41.63Q79.39 38.87 80.52 36.33Q81.64 33.79 82.59 31.84Q83.54 29.88 84.28 28.69Q85.01 27.49 85.40 27.39L85.40 27.39Q85.64 27.29 85.91 27.29Q86.18 27.29 86.52 27.29L86.52 27.29Q87.40 27.29 88.96 27.34Q90.53 27.39 93.02 27.39L93.02 27.39Q94.53 27.39 95.75 27.27Q96.97 27.15 97.92 27.00Q98.88 26.86 99.66 26.73Q100.44 26.61 101.12 26.61L101.12 26.61Q102.15 26.61 102.47 26.90Q102.78 27.20 102.78 27.59L102.78 27.59Q102.78 28.47 101.32 28.91L101.32 28.91Q99.90 29.35 97.34 29.81Q94.78 30.27 91.60 31.40L91.60 31.40Q89.65 32.08 88.87 33.86Q88.09 35.64 88.09 38.28L88.09 38.28Q88.09 40.19 88.40 43.14Q88.72 46.09 89.28 49.68Q89.84 53.27 90.63 57.30Q91.41 61.33 92.31 65.41Q93.21 69.48 94.21 73.34Q95.21 77.20 96.24 80.47Q97.27 83.74 98.27 86.21Q99.27 88.67 100.20 89.89L100.20 89.89Q101.07 91.06 101.98 91.89Q102.88 92.72 103.98 93.31Q105.08 93.90 106.37 94.34Q107.67 94.78 109.28 95.21L109.28 95.21Q110.84 95.61 111.43 96.04Q112.01 96.48 112.01 97.12L112.01 97.12Q112.01 97.80 111.21 98.24Q110.40 98.68 108.69 98.68L108.69 98.68Q106.64 98.68 104.42 98.54Q102.20 98.39 99.51 98.39L99.51 98.39Q95.17 98.39 91.58 99.02Q87.99 99.66 85.03 100.44Q82.08 101.22 79.69 101.86Q77.29 102.49 75.29 102.49L75.29 102.49Q74.76 102.49 74.22 102.29Q73.68 102.10 73.68 101.42L73.68 101.42Q73.68 100.68 74.56 100.22Q75.44 99.76 76.83 99.34Q78.22 98.93 79.93 98.49Q81.64 98.05 83.30 97.31L83.30 97.31Q85.01 96.53 85.77 95.29Q86.52 94.04 86.52 92.09L86.52 92.09Q86.52 90.97 86.16 88.57Q85.79 86.18 85.21 83.01Q84.62 79.83 83.86 76.17Q83.11 72.51 82.30 68.85Q81.49 65.19 80.69 61.79Q79.88 58.40 79.25 55.81Q78.61 53.22 78.15 51.66Q77.69 50.10 77.59 50.10L77.59 50.10Q77.44 50.10 76.68 51.42Q75.93 52.73 74.80 54.93Q73.68 57.13 72.27 59.96Q70.85 62.79 69.41 65.77Q67.97 68.75 66.55 71.68Q65.14 74.61 63.96 77.03Q62.79 79.44 62.01 81.08Q61.23 82.71 60.99 83.11L60.99 83.11Q60.50 84.03 59.96 85.06Q59.42 86.08 58.86 86.94Q58.30 87.79 57.81 88.35Q57.32 88.92 56.98 88.92L56.98 88.92Q56.69 88.92 56.23 88.45Q55.76 87.99 55.27 87.30Q54.79 86.62 54.27 85.84Q53.76 85.06 53.42 84.42L53.42 84.42Q52.15 82.23 50.44 79.22Q48.73 76.22 46.85 72.92Q44.97 69.63 43.14 66.31Q41.31 62.99 39.72 60.18Q38.13 57.37 37.01 55.35Q35.89 53.32 35.50 52.59L35.50 52.59Q34.67 51.12 34.08 50.12Q33.50 49.12 33.08 48.54Q32.67 47.95 32.37 47.68Q32.08 47.41 31.79 47.41L31.79 47.41Q31.40 47.41 31.40 48.19L31.40 48.19Q31.40 48.97 31.54 50.32Q31.69 51.66 31.79 52.69L31.79 52.69Q32.28 57.42 32.45 61.55Q32.62 65.67 32.62 69.48L32.62 69.48Q32.62 72.90 32.23 76.88Q31.84 80.86 30.91 84.84Q29.98 88.82 28.39 92.48Q26.81 96.14 24.37 98.97Q21.92 101.81 18.58 103.49Q15.23 105.18 10.79 105.18L10.79 105.18Q8.20 105.18 6.20 104.35Q4.20 103.52 2.81 102.12Q1.42 100.73 0.71 98.95Q0 97.17 0 95.21L0 95.21Q0 93.85 0.37 92.48Q0.73 91.11 1.56 90.06Q2.39 89.01 3.66 88.35Q4.93 87.70 6.79 87.70L6.79 87.70Q8.25 87.70 9.40 88.21Q10.55 88.72 11.45 89.48Q12.35 90.23 13.09 91.16Q13.82 92.09 14.40 92.92L14.40 92.92Q16.46 95.70 18.90 95.70L18.90 95.70Q21.04 95.70 22.61 94.38Q24.17 93.07 25.32 90.84Q26.46 88.62 27.20 85.74Q27.93 82.86 28.34 79.74Q28.76 76.61 28.93 73.46Q29.10 70.31 29.10 67.58L29.10 67.58Q29.10 62.74 28.71 58.35Q28.32 53.96 27.78 50.49Z"
            style="stroke-dasharray: 589, 591; stroke-dashoffset: 590;">
            <animate attributeName="stroke-dashoffset" to="0" dur="1500ms" calcMode="linear" repeatCount="1"
                fill="freeze" begin="600ms"></animate>
        </path>
    </g>
</svg>