<svg width="58.103515625" height="110.009765625" viewBox="0 0 58.103515625 112.009765625"
    xmlns="http://www.w3.org/2000/svg" data-copyright="https://github.com/oubenruing/svg-text-animate"
    style="vertical-align: text-top; ">
    <g id="svgGroup" stroke-linecap="round" stroke="#000" fill="none" style="fill:none; 
            stroke:#D93434;
            stroke-width:2px;">
        <path
            d="M15.09 64.79L15.09 64.79Q13.28 64.79 11.69 64.11Q10.11 63.43 8.94 62.06Q7.76 60.69 7.08 58.64Q6.40 56.59 6.40 53.81L6.40 53.81Q6.40 50.78 7.25 47.88Q8.11 44.97 9.91 42.70Q11.72 40.43 14.53 39.06Q17.33 37.70 21.29 37.70L21.29 37.70Q24.56 37.70 27.08 38.55Q29.59 39.40 31.49 40.84Q33.40 42.29 34.74 44.19Q36.08 46.09 37.01 48.17Q37.94 50.24 38.55 52.37Q39.16 54.49 39.60 56.40L39.60 56.40Q39.84 57.47 40.21 59.45Q40.58 61.43 41.02 64.01Q41.46 66.60 41.94 69.56Q42.43 72.51 42.92 75.54Q43.41 78.56 43.87 81.42Q44.34 84.28 44.73 86.65Q45.12 89.01 45.39 90.70Q45.65 92.38 45.80 93.02L45.80 93.02Q46.09 94.53 46.46 96.09Q46.83 97.66 47.39 98.95Q47.95 100.24 48.78 101.07Q49.61 101.90 50.88 101.90L50.88 101.90Q51.61 101.90 52.15 101.56Q52.69 101.22 53.00 100.63Q53.32 100.05 53.47 99.32Q53.61 98.58 53.61 97.80L53.61 97.80Q53.61 96.88 53.56 95.92Q53.52 94.97 53.52 94.29L53.52 94.29Q53.52 93.55 53.71 93.02Q53.91 92.48 54.49 92.48L54.49 92.48Q55.03 92.48 55.35 93.09Q55.66 93.70 55.83 94.51Q56.01 95.31 56.05 96.12Q56.10 96.92 56.10 97.31L56.10 97.31Q56.10 99.02 55.81 101.17Q55.52 103.32 54.59 105.32L54.59 105.32Q53.71 107.37 51.66 108.69Q49.61 110.01 46.92 110.01L46.92 110.01Q44.58 110.01 42.90 109.33Q41.21 108.64 40.01 107.62Q38.82 106.59 38.01 105.42Q37.21 104.25 36.72 103.22L36.72 103.22Q35.35 100.59 34.64 97.44Q33.94 94.29 33.50 91.41L33.50 91.41Q32.76 92.63 31.27 94.43Q29.79 96.24 27.59 97.90Q25.39 99.56 22.51 100.73Q19.63 101.90 16.11 101.90L16.11 101.90Q12.21 101.90 9.45 100.81Q6.69 99.71 4.93 97.83Q3.17 95.95 2.34 93.43Q1.51 90.92 1.51 88.09L1.51 88.09Q1.51 85.06 2.64 81.98Q3.76 78.91 6.32 76.42Q8.89 73.93 13.01 72.36Q17.14 70.80 23.10 70.80L23.10 70.80Q24.46 70.80 25.76 70.92Q27.05 71.04 28.10 71.19Q29.15 71.34 29.91 71.48Q30.66 71.63 31.01 71.68L31.01 71.68Q30.71 67.48 30.27 63.28L30.27 63.28Q30.08 61.52 29.86 59.57Q29.64 57.62 29.39 55.64Q29.15 53.66 28.86 51.76Q28.56 49.85 28.22 48.19L28.22 48.19Q27.44 44.43 25.17 42.21Q22.90 39.99 19.38 39.99L19.38 39.99Q17.48 39.99 16.04 40.67Q14.60 41.36 13.60 42.43Q12.60 43.51 12.11 44.85Q11.62 46.19 11.62 47.51L11.62 47.51Q11.62 48.93 12.30 49.88Q12.99 50.83 13.99 51.56Q14.99 52.29 16.16 52.95Q17.33 53.61 18.33 54.47Q19.34 55.32 20.02 56.52Q20.70 57.71 20.70 59.52L20.70 59.52Q20.70 61.91 19.07 63.35Q17.43 64.79 15.09 64.79ZM31.40 74.71L31.40 74.71Q31.05 74.56 30.20 74.34Q29.35 74.12 28.17 73.90Q27.00 73.68 25.66 73.54Q24.32 73.39 23.00 73.39L23.00 73.39Q20.41 73.39 18.19 74.12Q15.97 74.85 14.36 76.29Q12.74 77.73 11.82 79.91Q10.89 82.08 10.89 84.91L10.89 84.91Q10.89 87.50 11.74 89.18Q12.60 90.87 13.94 91.85Q15.28 92.82 16.92 93.21Q18.55 93.60 20.12 93.60L20.12 93.60Q22.61 93.60 24.85 92.82Q27.10 92.04 28.81 91.02Q30.52 89.99 31.59 89.01Q32.67 88.04 32.91 87.70L32.91 87.70Q32.57 84.42 32.28 81.74L32.28 81.74Q32.13 80.57 32.01 79.44Q31.88 78.32 31.76 77.34Q31.64 76.37 31.54 75.68Q31.45 75 31.40 74.71Z"
            style="stroke-dasharray: 403, 405; stroke-dashoffset: 404;">
            <animate attributeName="stroke-dashoffset" to="0" dur="1500ms" calcMode="linear" repeatCount="1"
                fill="freeze" begin="800ms"></animate>
        </path>
    </g>
</svg>