<svg width="51.4140625" height="141.11328125" viewBox="0 0 51.4140625 143.11328125" xmlns="http://www.w3.org/2000/svg"
    data-copyright="https://github.com/oubenruing/svg-text-animate" style="vertical-align: text-top; ">
    <g id="svgGroup" stroke-linecap="round" stroke="#000" fill="none" style="fill:none; 
            stroke:#D93434;
            stroke-width:2px;">
        <path
            d="M21.00 49.02L21.00 49.02Q21.00 49.71 20.95 51.22Q20.90 52.73 20.90 54.79L20.90 54.79Q20.90 55.96 20.92 56.64Q20.95 57.32 20.95 57.96Q20.95 58.59 20.97 59.42Q21.00 60.25 21.00 61.72L21.00 61.72Q22.56 59.57 24.61 57.86L24.61 57.86Q25.49 57.13 26.56 56.45Q27.64 55.76 28.93 55.22Q30.22 54.69 31.67 54.35Q33.11 54.00 34.72 54.00L34.72 54.00Q38.23 54.00 40.97 55.27Q43.70 56.54 45.58 58.81Q47.46 61.08 48.44 64.23Q49.41 67.38 49.41 71.19L49.41 71.19Q49.41 76.90 47.90 81.45Q46.39 85.99 43.80 89.18Q41.21 92.38 37.74 94.09Q34.28 95.80 30.32 95.80L30.32 95.80Q28.91 95.80 27.66 95.56Q26.42 95.31 25.34 94.92Q24.27 94.53 23.36 94.07Q22.46 93.60 21.78 93.21L21.78 93.21Q21.73 95.21 21.70 96.75Q21.68 98.29 21.68 99.76Q21.68 101.22 21.68 102.78Q21.68 104.35 21.68 106.40L21.68 106.40Q21.68 109.72 21.75 113.72Q21.83 117.72 22.09 121.56Q22.36 125.39 22.85 128.56Q23.34 131.74 24.22 133.30L24.22 133.30Q25.05 134.81 26.27 135.69Q27.49 136.57 28.71 137.11L28.71 137.11Q30.22 137.79 31.37 138.48Q32.52 139.16 32.52 139.89L32.52 139.89Q32.52 140.43 32.18 140.77Q31.84 141.11 31.01 141.11L31.01 141.11Q29.69 141.11 27.32 140.70Q24.95 140.28 22.19 139.79Q19.43 139.31 16.70 138.89Q13.96 138.48 11.91 138.48L11.91 138.48Q9.72 138.48 8.25 138.65Q6.79 138.82 5.18 138.82L5.18 138.82Q3.03 138.82 2.27 138.55Q1.51 138.28 1.51 137.89L1.51 137.89Q1.51 137.45 2.00 137.30Q2.49 137.16 3.32 137.01Q4.15 136.87 5.18 136.55Q6.20 136.23 7.32 135.50L7.32 135.50Q8.50 134.67 9.20 133.42Q9.91 132.18 10.30 130.66Q10.69 129.15 10.84 127.51Q10.99 125.88 11.08 124.32L11.08 124.32Q11.18 123.10 11.28 120.58Q11.38 118.07 11.47 114.72Q11.57 111.38 11.69 107.42Q11.82 103.47 11.91 99.27Q12.01 95.07 12.11 90.89Q12.21 86.72 12.26 82.96Q12.30 79.20 12.35 76.05Q12.40 72.90 12.40 70.80L12.40 70.80Q12.40 67.68 12.23 65.65Q12.06 63.62 11.67 62.43Q11.28 61.23 10.64 60.77Q10.01 60.30 9.08 60.30L9.08 60.30Q8.35 60.30 7.54 60.60Q6.74 60.89 5.93 61.21Q5.13 61.52 4.44 61.82Q3.76 62.11 3.32 62.11L3.32 62.11Q2.49 62.11 2.49 61.28L2.49 61.28Q2.49 60.99 2.78 60.60Q3.08 60.21 4.30 59.62L4.30 59.62Q5.08 59.18 6.15 58.72Q7.23 58.25 8.47 57.64Q9.72 57.03 11.06 56.18Q12.40 55.32 13.72 54.10L13.72 54.10Q15.48 52.49 16.58 51.22Q17.68 49.95 18.38 49.10Q19.09 48.24 19.51 47.78Q19.92 47.31 20.31 47.31L20.31 47.31Q20.75 47.31 20.87 47.83Q21.00 48.34 21.00 49.02ZM29.98 58.79L29.98 58.79Q27.88 58.79 26.34 59.77Q24.80 60.74 23.73 62.35Q22.66 63.96 22.00 66.02Q21.34 68.07 20.95 70.24Q20.56 72.41 20.43 74.49Q20.31 76.56 20.31 78.22L20.31 78.22Q20.31 80.81 20.68 83.42Q21.04 86.04 22.00 88.11Q22.95 90.19 24.61 91.50Q26.27 92.82 28.81 92.82L28.81 92.82Q30.81 92.82 32.64 91.80Q34.47 90.77 35.86 88.50Q37.26 86.23 38.09 82.54Q38.92 78.86 38.92 73.58L38.92 73.58Q38.92 70.36 38.43 67.65Q37.94 64.94 36.87 62.96Q35.79 60.99 34.08 59.89Q32.37 58.79 29.98 58.79Z"
            style="stroke-dasharray: 385, 387; stroke-dashoffset: 386;">
            <animate attributeName="stroke-dashoffset" to="0" dur="1500ms" calcMode="linear" repeatCount="1"
                fill="freeze" begin="1000ms"></animate>
        </path>
    </g>
</svg>