<svg width="37.009765625" height="98.681640625" viewBox="0 0 37.009765625 100.681640625"
    xmlns="http://www.w3.org/2000/svg" data-copyright="https://github.com/oubenruing/svg-text-animate"
    style="vertical-align: text-top; ">
    <g id="svgGroup" stroke-linecap="round" stroke="#000" fill="none" style="fill:none; 
            stroke:#D93434;
            stroke-width:2px;">
        <path
            d="M21.58 8.69L21.58 8.69Q21.58 9.23 21.58 11.23Q21.58 13.23 21.61 16.02Q21.63 18.80 21.66 21.97Q21.68 25.15 21.78 28.08L21.78 28.08Q21.88 32.18 22.12 37.55Q22.36 42.92 22.63 48.71Q22.90 54.49 23.22 60.35Q23.54 66.21 23.85 71.31Q24.17 76.42 24.41 80.37Q24.66 84.33 24.80 86.38L24.80 86.38Q25 89.26 25.59 90.92Q26.17 92.58 27.22 93.55Q28.27 94.53 29.86 95.07Q31.45 95.61 33.69 96.19L33.69 96.19Q34.52 96.44 34.77 96.73Q35.01 97.02 35.01 97.41L35.01 97.41Q35.01 97.85 34.67 98.17Q34.33 98.49 33.40 98.49L33.40 98.49Q32.96 98.49 31.62 98.39Q30.27 98.29 28.47 98.14Q26.66 98.00 24.54 97.90Q22.41 97.80 20.41 97.80L20.41 97.80Q18.80 97.80 16.99 97.95Q15.19 98.10 13.48 98.24Q11.77 98.39 10.28 98.54Q8.79 98.68 7.81 98.68L7.81 98.68Q7.13 98.68 6.47 98.44Q5.81 98.19 5.81 97.31L5.81 97.31Q5.81 96.00 7.71 96.00L7.71 96.00Q8.98 96.00 10.57 95.85Q12.16 95.70 13.18 95.31L13.18 95.31Q14.01 95.02 14.50 94.48Q14.99 93.95 15.26 93.29Q15.53 92.63 15.63 91.92Q15.72 91.21 15.72 90.48L15.72 90.48Q15.72 89.60 15.60 87.67Q15.48 85.74 15.28 83.15Q15.09 80.57 14.82 77.44Q14.55 74.32 14.26 71.02Q13.96 67.72 13.67 64.45Q13.38 61.18 13.09 58.25Q12.79 55.32 12.57 52.93Q12.35 50.54 12.21 49.02L12.21 49.02Q11.96 46.78 11.72 44.36Q11.47 41.94 11.23 39.60Q10.99 37.26 10.69 35.11Q10.40 32.96 10.11 31.20L10.11 31.20Q9.81 29.49 9.11 28.54Q8.40 27.59 6.98 27.59L6.98 27.59Q5.86 27.59 4.37 28.13Q2.88 28.66 1.37 29.30Q-0.15 29.93-1.49 30.47Q-2.83 31.01-3.61 31.01L-3.61 31.01Q-4.15 31.01-4.57 30.74Q-4.98 30.47-4.98 29.79L-4.98 29.79Q-4.98 28.86-4.00 28.22L-4.00 28.22Q-3.56 27.88-2.83 27.54Q-2.10 27.20-0.90 26.59Q0.29 25.98 2.05 24.95Q3.81 23.93 6.30 22.22L6.30 22.22Q8.94 20.41 11.08 18.41Q13.23 16.41 14.92 14.53Q16.60 12.65 17.75 11.08Q18.90 9.52 19.48 8.59L19.48 8.59Q20.02 7.86 20.31 7.42Q20.61 6.98 21.00 6.98L21.00 6.98Q21.39 6.98 21.48 7.54Q21.58 8.11 21.58 8.69Z"
            style="stroke-dasharray: 254, 256; stroke-dashoffset: 255;">
            <animate attributeName="stroke-dashoffset" to="0" dur="1500ms" calcMode="linear" repeatCount="1"
                fill="freeze" begin="1200ms"></animate>
        </path>
    </g>
</svg>