<svg width="43.89453125" height="96.09375" viewBox="0 0 43.89453125 98.09375" xmlns="http://www.w3.org/2000/svg"
    data-copyright="https://github.com/oubenruing/svg-text-animate" style="vertical-align: text-top; ">
    <g id="svgGroup" stroke-linecap="round" stroke="#000" fill="none" style="fill:none; 
            stroke:#D93434;
            stroke-width:2px;">
        <path
            d="M39.99 74.12L39.99 74.12Q40.67 75.24 41.24 77.15Q41.80 79.05 41.80 81.01L41.80 81.01Q41.80 84.57 40.63 87.38Q39.45 90.19 37.26 92.11Q35.06 94.04 31.96 95.07Q28.86 96.09 25 96.09L25 96.09Q19.43 96.09 15.06 94.21Q10.69 92.33 7.71 88.96Q4.74 85.60 3.17 80.93Q1.61 76.27 1.61 70.70L1.61 70.70Q1.61 65.67 2.69 61.57Q3.76 57.47 5.62 54.25Q7.47 51.03 9.91 48.63Q12.35 46.24 15.09 44.68Q17.82 43.12 20.65 42.36Q23.49 41.60 26.12 41.60L26.12 41.60Q28.71 41.60 31.49 42.29Q34.28 42.97 36.60 44.63Q38.92 46.29 40.41 49.00Q41.89 51.71 41.89 55.81L41.89 55.81Q41.89 59.38 40.84 62.06Q39.79 64.75 38.09 66.70Q36.38 68.65 34.20 69.92Q32.03 71.19 29.76 71.95Q27.49 72.71 25.32 73.00Q23.14 73.29 21.48 73.29L21.48 73.29Q19.09 73.29 16.82 72.95Q14.55 72.61 13.28 72.22L13.28 72.22Q13.48 76.03 14.48 79.57Q15.48 83.11 17.33 85.79Q19.19 88.48 21.95 90.09Q24.71 91.70 28.42 91.70L28.42 91.70Q31.01 91.70 32.89 90.82Q34.77 89.94 35.99 88.45Q37.21 86.96 37.79 85.01Q38.38 83.06 38.38 80.91L38.38 80.91Q38.38 79.64 38.21 78.27Q38.04 76.90 37.60 75.68L37.60 75.68Q37.30 74.95 37.11 74.32Q36.91 73.68 36.91 73.29L36.91 73.29Q36.91 72.31 37.79 72.31L37.79 72.31Q38.23 72.31 38.84 72.75Q39.45 73.19 39.99 74.12ZM13.09 68.99L13.09 68.99Q14.36 69.38 15.97 69.65Q17.58 69.92 20.02 69.92L20.02 69.92Q22.85 69.92 25.24 68.85Q27.64 67.77 29.35 65.84Q31.05 63.92 32.03 61.18Q33.01 58.45 33.01 55.08L33.01 55.08Q33.01 52.10 32.35 50.07Q31.69 48.05 30.62 46.83Q29.54 45.61 28.15 45.09Q26.76 44.58 25.29 44.58L25.29 44.58Q23.44 44.58 21.29 45.70Q19.14 46.83 17.31 49.61Q15.48 52.39 14.28 57.10Q13.09 61.82 13.09 68.99Z"
            style="stroke-dasharray: 306, 308; stroke-dashoffset: 307;">
            <animate attributeName="stroke-dashoffset" to="0" dur="1500ms" calcMode="linear" repeatCount="1"
                fill="freeze" begin="1400ms"></animate>
        </path>
    </g>
</svg>